# xmcd
#
# Track frame offsets:
#	150
#	18602
#	40339
#	71272
#	98363
#	121194
#	144863
#	175000
#	206032
#	225500
#	246635
#	266756
#	294985
#	322007
#
# Disc length: 4583 seconds
#
# Revision: 0
# Processed by: cddbd v1.5.2PL0 Copyright (c) Steve Scherf et al.
# Submitted via: audiograbber 1.83.01
#
DISCID=c211e50e
DTITLE=Andreas Franz - Syndikat der Spinne
DYEAR=2002
DGENRE=Hörbuch
TTITLE0=164
TTITLE1=165
TTITLE2=166
TTITLE3=167
TTITLE4=168
TTITLE5=169
TTITLE6=170
TTITLE7=171
TTITLE8=172
TTITLE9=173
TTITLE10=174
TTITLE11=175
TTITLE12=176
TTITLE13=177
EXTD=
EXTT0=
EXTT1=
EXTT2=
EXTT3=
EXTT4=
EXTT5=
EXTT6=
EXTT7=
EXTT8=
EXTT9=
EXTT10=
EXTT11=
EXTT12=
EXTT13=
PLAYORDER=
